<svg xmlns="http://www.w3.org/2000/svg" version="1.1" xmlns:xlink="http://www.w3.org/1999/xlink" xmlns:svgjs="http://svgjs.com/svgjs" id="BgenPttrnSvgRootPreview" width="100%" height="100%"><defs><pattern x="0" y="0" width="1" height="1" patternUnits="userSpaceOnUse" id="BgenPttrnLayer1"><g id="PatternRootContent1"><g id="BgenPttrnLayer1background"><rect width="1" height="1" id="BgenPttrnBackground1" class="color_1 fill_color_1" fill="#2b1a06"></rect></g></g></pattern><pattern x="0" y="0" width="80" height="40" patternUnits="userSpaceOnUse" id="BgenPttrnLayer2" patternTransform="matrix(1,0,0,1,0,0)"><g id="PatternRootContent2"><g id="BgenPttrnLayer2Element1"><use xlink:href="#BgenPttrnElement1" x="56" y="-34" transform="translate(75.06499862670898, -14.935001373291016) scale(1) translate(-75.06499862670898, 14.935001373291016) rotate(45, 80, -10)"></use><use xlink:href="#BgenPttrnElement1" x="-24" y="-34" transform="translate(-4.935001373291016, -14.935001373291016) scale(1) translate(4.935001373291016, 14.935001373291016) rotate(45, 0, -10)"></use><use xlink:href="#BgenPttrnElement1" x="16" y="-14" transform="translate(35.064998626708984, 5.064998626708984) scale(1) translate(-35.064998626708984, -5.064998626708984) rotate(45, 40, 10)"></use><use xlink:href="#BgenPttrnElement1" x="-64" y="-14" transform="translate(-44.935001373291016, 5.064998626708984) scale(1) translate(44.935001373291016, -5.064998626708984) rotate(45, -40, 10)"></use><use xlink:href="#BgenPttrnElement1" x="96" y="-14" transform="translate(115.06499862670898, 5.064998626708984) scale(1) translate(-115.06499862670898, -5.064998626708984) rotate(45, 120, 10)"></use><use xlink:href="#BgenPttrnElement1" x="56" y="6" transform="translate(75.06499862670898, 25.064998626708984) scale(1) translate(-75.06499862670898, -25.064998626708984) rotate(45, 80, 30)"></use><use xlink:href="#BgenPttrnElement1" x="-24" y="6" transform="translate(-4.935001373291016, 25.064998626708984) scale(1) translate(4.935001373291016, -25.064998626708984) rotate(45, 0, 30)"></use><use xlink:href="#BgenPttrnElement1" x="16" y="26" transform="translate(35.064998626708984, 45.064998626708984) scale(1) translate(-35.064998626708984, -45.064998626708984) rotate(45, 40, 50)"></use><use xlink:href="#BgenPttrnElement1" x="16" y="26" transform="translate(35.064998626708984, 45.064998626708984) scale(1) translate(-35.064998626708984, -45.064998626708984) rotate(45, 40, 50)"></use></g></g></pattern><symbol id="BgenPttrnElement1"><path d="M23.99 37.08L9.24 25.61 6 28.13l18 14 18-14-3.26-2.53-14.75 11.48zM24 32l14.73-11.45L42 18 24 4 6 18l3.26 2.53L24 32z" class="color_2 fill_color_2" fill="#362204"></path></symbol></defs><rect width="100%" height="100%" id="BgenPttrnRctLayer1" fill="url(#BgenPttrnLayer1)"></rect><rect width="100%" height="100%" id="BgenPttrnRctLayer2" fill="url(#BgenPttrnLayer2)"></rect></svg>