<svg xmlns="http://www.w3.org/2000/svg" version="1.1" xmlns:xlink="http://www.w3.org/1999/xlink" xmlns:svgjs="http://svgjs.com/svgjs" id="BgenPttrnSvgRootPreview" width="100%" height="100%"><defs><pattern x="0" y="0" width="1" height="1" patternUnits="userSpaceOnUse" id="BgenPttrnLayer1"><g id="PatternRootContent1"><g id="BgenPttrnLayer1background"><rect width="1" height="1" id="BgenPttrnBackground1" class="color_1 fill_color_1" fill="#301a04"></rect></g></g></pattern><pattern x="0" y="0" width="50" height="120" patternUnits="userSpaceOnUse" id="BgenPttrnLayer2" patternTransform="matrix(0.5,0,0,0.5,0,0)"><g id="PatternRootContent2"><g id="BgenPttrnLayer2Element3"><use xlink:href="#BgenPttrnElement3" x="21.286819458007812" y="-77.7320556640625" transform="translate(50, -30) scale(1) translate(-50, 30) rotate(45, 50, -30)"></use><use xlink:href="#BgenPttrnElement3" x="-28.713180541992188" y="-77.7320556640625" transform="translate(0, -30) scale(1) translate(0, 30) rotate(45, 0, -30)"></use><use xlink:href="#BgenPttrnElement3" x="-3.7131805419921875" y="-17.7320556640625" transform="translate(25, 30) scale(1) translate(-25, -30) rotate(45, 25, 30)"></use><use xlink:href="#BgenPttrnElement3" x="-53.71318054199219" y="-17.7320556640625" transform="translate(-25, 30) scale(1) translate(25, -30) rotate(45, -25, 30)"></use><use xlink:href="#BgenPttrnElement3" x="46.28681945800781" y="-17.7320556640625" transform="translate(75, 30) scale(1) translate(-75, -30) rotate(45, 75, 30)"></use><use xlink:href="#BgenPttrnElement3" x="21.286819458007812" y="42.2679443359375" transform="translate(50, 90) scale(1) translate(-50, -90) rotate(45, 50, 90)"></use><use xlink:href="#BgenPttrnElement3" x="-28.713180541992188" y="42.2679443359375" transform="translate(0, 90) scale(1) translate(0, -90) rotate(45, 0, 90)"></use><use xlink:href="#BgenPttrnElement3" x="-3.7131805419921875" y="102.2679443359375" transform="translate(25, 150) scale(1) translate(-25, -150) rotate(45, 25, 150)"></use><use xlink:href="#BgenPttrnElement3" x="-3.7131805419921875" y="102.2679443359375" transform="translate(25, 150) scale(1) translate(-25, -150) rotate(45, 25, 150)"></use></g></g></pattern><symbol id="BgenPttrnElement3"><g class="color_4 fill_color_4" fill="#141010"><path d="M26.713,28L26.713,-4.547473508864641e-13l4,0l0,28l-4,0Z" transform="matrix(1,0,0,1,0,0)"></path><path d="M33.177,32.267940521240234L57.426,46.267940521240234l-2,3.464l-24.249,-14l2,-3.464Z" transform="matrix(1,0,0,1,0,0)"></path><path d="M26.249,35.732051849365234L2,49.732051849365234l-2,-3.464l24.249,-14l2,3.464Z" transform="matrix(1,0,0,1,0,0)"></path><path d="M30.713,67.464111328125L30.713,95.464111328125l-4,0l0,-28l4,0Z" transform="matrix(1,0,0,1,0,0)"></path><path d="M24.249,63.196163177490234L0,49.196163177490234l2,-3.464l24.249,14l-2,3.464Z" transform="matrix(1,0,0,1,0,0)"></path><path d="M31.177,59.732051849365234L55.426,45.732051849365234l2,3.464l-24.249,14l-2,-3.464Z" transform="matrix(1,0,0,1,0,0)"></path></g></symbol></defs><rect width="100%" height="100%" id="BgenPttrnRctLayer1" fill="url(#BgenPttrnLayer1)"></rect><rect width="100%" height="100%" id="BgenPttrnRctLayer2" fill="url(#BgenPttrnLayer2)"></rect></svg>